<svg clip-rule="evenodd" fill-rule="evenodd" height="512" stroke-linejoin="round" stroke-miterlimit="2" viewBox="0 0 24 24" width="512" xmlns="http://www.w3.org/2000/svg"><g id="Icon"><path d="m22.75 5.5c0-.729-.29-1.429-.805-1.945-.516-.515-1.216-.805-1.945-.805-3.832 0-12.168 0-16 0-.729 0-1.429.29-1.945.805-.515.516-.805 1.216-.805 1.945v10c0 1.519 1.231 2.75 2.75 2.75h4.379s3.119 2.807 3.119 2.807c.286.257.718.257 1.004 0l3.119-2.807h4.379c1.519 0 2.75-1.231 2.75-2.75zm-5.279 7.749.029.001h1.5c.414 0 .75-.336.75-.75s-.336-.75-.75-.75h-.75v-.5h.75c.414 0 .75-.336.75-.75s-.336-.75-.75-.75h-.75v-.5h.75c.414 0 .75-.336.75-.75s-.336-.75-.75-.75h-1.5c-.351 0-.646.241-.728.567l-.007.033-.006.036-.005.033-.002.033-.002.033v.015 4 .005c.002.331.219.611.518.708l.027.009.027.007.027.006.028.005.028.004.033.003zm-8.721-4.749v4c0 .414.336.75.75.75s.75-.336.75-.75v-4c0-.414-.336-.75-.75-.75s-.75.336-.75.75zm-4.5 0v4c0 .414.336.75.75.75h2c.414 0 .75-.336.75-.75s-.336-.75-.75-.75h-1.25v-3.25c0-.414-.336-.75-.75-.75s-.75.336-.75.75zm7.048.263 1.5 4c.11.293.389.487.702.487s.592-.194.702-.487l1.5-4c.146-.387-.051-.82-.439-.965-.387-.146-.82.051-.965.439l-.798 2.127s-.798-2.127-.798-2.127c-.145-.388-.578-.585-.965-.439-.388.145-.585.578-.439.965z"/></g></svg>