<svg height="511pt" viewBox="0 -12 511.99952 511" width="511pt" xmlns="http://www.w3.org/2000/svg"><path d="m508.25 29.847656-25.601562-25.597656c-4.992188-4.996094-13.09375-5-18.089844-.007812-.003906.003906-.007813.003906-.007813.007812l-153.601562 153.597656c-2.398438 2.402344-3.75 5.65625-3.75 9.050782v25.601562c0 7.066406 5.730469 12.796875 12.800781 12.796875h25.601562c3.394532 0 6.648438-1.347656 9.046876-3.746094l153.601562-153.601562c4.996094-4.996094 5-13.09375.007812-18.09375-.003906 0-.007812-.003907-.007812-.007813zm0 0"/><path d="m345.601562 230.898438h-25.601562c-21.199219-.023438-38.378906-17.203126-38.402344-38.398438v-25.601562c-.023437-10.1875 4.027344-19.964844 11.25-27.148438l88.050782-88.050781h-316.898438c-35.332031.039062-63.9609375 28.667969-64 64v230.398437c.0390625 35.332032 28.667969 63.964844 64 64h115.199219v64c0 7.070313 5.730469 12.800782 12.800781 12.800782 2.769531 0 5.464844-.898438 7.679688-2.5625l99-74.238282h123.71875c35.332031-.039062 63.964843-28.671875 64-64v-240.097656l-113.648438 113.648438c-7.1875 7.226562-16.960938 11.273437-27.148438 11.25zm-256-102.398438h128c7.066407 0 12.796876 5.730469 12.796876 12.800781 0 7.066407-5.730469 12.796875-12.796876 12.796875h-128c-7.070312 0-12.800781-5.726562-12.800781-12.796875 0-7.070312 5.730469-12.800781 12.800781-12.800781zm0 76.796875h128c7.066407 0 12.796876 5.730469 12.796876 12.800781 0 7.070313-5.730469 12.800782-12.796876 12.800782h-128c-7.070312 0-12.800781-5.730469-12.800781-12.800782 0-7.066406 5.730469-12.800781 12.800781-12.800781zm319.996094 89.601563c0 7.070312-5.730468 12.800781-12.796875 12.800781h-307.199219c-7.070312 0-12.800781-5.730469-12.800781-12.800781 0-7.066407 5.730469-12.800782 12.800781-12.800782h307.199219c7.066407 0 12.796875 5.730469 12.796875 12.800782zm0 0"/></svg>