<svg height="512" viewBox="0 0 28 28" width="512" xmlns="http://www.w3.org/2000/svg" xmlns:xlink="http://www.w3.org/1999/xlink"><linearGradient id="linear-gradient" gradientUnits="userSpaceOnUse" x1="10" x2="27" y1="18.5" y2="18.5"><stop offset="0" stop-color="#26ab5a"/><stop offset="1" stop-color="#7ce35d"/></linearGradient><linearGradient id="linear-gradient-2" x1="1" x2="21" xlink:href="#linear-gradient" y1="11" y2="11"/><linearGradient id="linear-gradient-3" gradientUnits="userSpaceOnUse" x1="17.379" x2="2.879" y1="2.327" y2="12.949"><stop offset="0" stop-color="#fff"/><stop offset=".99" stop-color="#bdffd1"/></linearGradient><linearGradient id="linear-gradient-4" x1="18.413" x2="3.913" xlink:href="#linear-gradient-3" y1="3.738" y2="14.36"/><g id="Layer_2" data-name="Layer 2"><path d="m24.333 10h-11.666a2.669 2.669 0 0 0 -2.667 2.667v8.333a2.67 2.67 0 0 0 2.667 2.667h5.222l4.177 3.133a1 1 0 0 0 1.6-.8v-2.333h.666a2.67 2.67 0 0 0 2.668-2.667v-8.333a2.669 2.669 0 0 0 -2.667-2.667z" fill="url(#linear-gradient)"/><path d="m18 1h-14a3 3 0 0 0 -3 3v10a3 3 0 0 0 3 3h1v3a1 1 0 0 0 1.6.8l5-3.753 6.4-.047a3 3 0 0 0 3-3v-10a3 3 0 0 0 -3-3z" fill="url(#linear-gradient-2)"/><path d="m6 6h10v2h-10z" fill="url(#linear-gradient-3)"/><path d="m6 10h5v2h-5z" fill="url(#linear-gradient-4)"/></g></svg>