<?xml version="1.0" standalone="no"?>
<svg xmlns="http://www.w3.org/2000/svg" version="1.1" xmlns:xlink="http://www.w3.org/1999/xlink" width="512" height="512" x="0" y="0" viewBox="0 0 32 32" style="enable-background:new 0 0 512 512" xml:space="preserve" class=""><g><path d="M28.59 8.26h-1.85V8.2c.49-.07.88-.47.88-.98 0-.55-.45-1-1-1H14.98a.993.993 0 0 0-.13 1.98v.06H13c-.77 0-1.4.64-1.4 1.41v.42c0 1.28.48 2.45 1.28 3.33h3.74c3.1 0 5.75 1.97 6.74 4.73a5.96 5.96 0 0 0 3-3.28c2.14-.6 3.64-2.51 3.64-4.78v-.42c0-.77-.63-1.41-1.41-1.41zm-13.74 4.26c-.72-.51-1.2-1.33-1.25-2.26h1.25zm11.89 0v-2.26H28c-.06.93-.54 1.75-1.26 2.26zM25.73 23.78h-.83v-1.16c0-.73-.46-1.36-1.12-1.6-.1 1.87-.92 3.54-2.19 4.76h4.14c.55 0 1-.45 1-1s-.45-1-1-1z" fill="#acfa74" opacity="1" data-original="#000000"/><path d="M16.62 15.42H7.18C4.32 15.42 2 17.74 2 20.6c0 2.85 2.32 5.18 5.18 5.18 1.33 0 2.6-.52 3.56-1.42h2.32c.96.9 2.23 1.42 3.56 1.42 2.86 0 5.18-2.33 5.18-5.18 0-2.86-2.32-5.18-5.18-5.18zm.56 6.1c-.55 0-1-.45-1-1 0-.56.44-1 .99-1h.01c.55 0 1 .44 1 1 0 .55-.45 1-1 1zm-9.03-.04c-.08.48-.47.85-.97.85s-.89-.37-.97-.85a.979.979 0 0 1-.85-.96c0-.5.37-.9.85-.97.08-.48.47-.85.97-.85s.89.37.97.85c.47.07.84.47.84.97 0 .49-.37.89-.84.96z" fill="#acfa74" opacity="1" data-original="#000000"/></g></svg>