<svg id="Layer_1" enable-background="new 0 0 65 65" height="512" viewBox="0 0 65 65" width="512" xmlns="http://www.w3.org/2000/svg"><g><circle cx="29.8" cy="31.7" r="2.2"/><circle cx="23.4" cy="44.7" r="2.2"/><circle cx="36.9" cy="15.7" r="2.2"/><circle cx="38.4" cy="41.5" r="2.2"/><path d="m63.5 26.1c.6 0 1-.4 1-1s-.4-1-1-1h-6.6v-5.4h6.6c.6 0 1-.4 1-1s-.4-1-1-1h-6.6v-2.1c0-3.5-2.9-6.4-6.5-6.4h-2.1v-6.7c0-.6-.4-1-1-1s-1 .4-1 1v6.6h-5.4v-6.6c0-.6-.4-1-1-1s-1 .4-1 1v6.6h-5.4v-6.6c0-.6-.4-1-1-1s-1 .4-1 1v6.6h-5.4v-6.6c0-.6-.4-1-1-1s-1 .4-1 1v6.6h-5.4v-6.6c0-.6-.4-1-1-1s-1 .4-1 1v6.6h-2.1c-3.5 0-6.4 2.9-6.4 6.4v2.1h-6.7c-.6 0-1 .4-1 1s.4 1 1 1h6.6v1.4h7.7l6.6-5.3h10.4c.5-1.8 2.1-3.2 4.1-3.2 2.3 0 4.2 1.9 4.2 4.2s-1.9 4.2-4.2 4.2c-2 0-3.6-1.4-4.1-3.2h-9.7l-6.6 5.3h-8.4v2.1h-6.6c-.6 0-1 .4-1 1s.4 1 1 1h6.6v1.4h9.8l2.8 2.8h5.2c.6-1.6 2.1-2.8 3.9-2.8 2.3 0 4.2 1.9 4.2 4.2s-1.9 4.2-4.2 4.2c-2.1 0-3.8-1.6-4.1-3.6h-5.8l-2.8-2.8h-9v2h-6.6c-.6 0-1 .4-1 1s.4 1 1 1h6.6v5.4h-6.6c-.6 0-1 .4-1 1s.4 1 1 1h6.6v5.4h-6.6c-.6 0-1 .4-1 1s.4 1 1 1h6.6v2.1c0 3.5 2.9 6.4 6.4 6.4h2.1v6.6c0 .6.4 1 1 1s1-.4 1-1v-6.6h5.4v6.6c0 .6.4 1 1 1s1-.4 1-1v-6.6h5.4v6.6c0 .6.4 1 1 1s1-.4 1-1v-6.6h5.4v6.6c0 .6.4 1 1 1s1-.4 1-1v-6.6h5.4v6.6c0 .6.4 1 1 1s1-.4 1-1v-6.6h2.1c3.6 0 6.5-2.9 6.5-6.4v-2.1h6.6c.6 0 1-.4 1-1s-.4-1-1-1h-6.6v-.1h-12l-2.7 2.7h-9.5l-3.1-3.1h-2c-.5 1.8-2.1 3.2-4.1 3.2-2.3 0-4.2-1.9-4.2-4.2s1.9-4.2 4.2-4.2c2 0 3.6 1.4 4.1 3.2h2.9l3.1 3.1h7.8l2.7-2.7h12.9v-3.3h6.6c.6 0 1-.4 1-1s-.4-1-1-1h-6.6v-2.3h-12l-2.9 2.8c.4.6.6 1.4.6 2.1 0 2.3-1.9 4.2-4.2 4.2s-4.2-1.9-4.2-4.2 1.9-4.2 4.2-4.2c.8 0 1.5.2 2.2.6l3.6-3.3h12.8v-1.1h6.6c.6 0 1-.4 1-1s-.4-1-1-1h-6.6v-5.4zm-42.1 24.8c.6 0 1 .4 1 1s-.4 1-1 1h-4.1c-2.8 0-5.2-2.3-5.2-5.2v-12.1c0-.6.4-1 1-1s1 .4 1 1v12.1c0 1.7 1.4 3.2 3.2 3.2zm31.5-24.5c0 .6-.4 1-1 1s-1-.4-1-1v-9.2c0-1.7-1.4-3.2-3.2-3.2h-4.1c-.6 0-1-.4-1-1s.4-1 1-1h4.1c2.8 0 5.2 2.3 5.2 5.2z"/></g></svg>