<svg height="512" viewBox="0 0 24 24" width="512" xmlns="http://www.w3.org/2000/svg"><g id="Layer_2" data-name="Layer 2"><path d="m19 1.25h-14a1.75213 1.75213 0 0 0 -1.75 1.75v17.19531a1.74979 1.74979 0 0 0 2.67773 1.48438l5.93848-3.71192a.25871.25871 0 0 1 .2666-.001l5.93946 3.71289a1.74979 1.74979 0 0 0 2.67773-1.48435v-17.19531a1.75213 1.75213 0 0 0 -1.75-1.75zm-2.80225 7.52936-1.76928 1.41534a.46732.46732 0 0 0 -.15552.499l.81079 2.703a.467.467 0 0 1 -.72754.50793l-2.07593-1.55688a.46707.46707 0 0 0 -.56054 0l-2.07573 1.55679a.46717.46717 0 0 1 -.72778-.50793l.81079-2.703a.4669.4669 0 0 0 -.15552-.499l-1.76924-1.41525a.46714.46714 0 0 1 .292-.83185h2.02661a.46686.46686 0 0 0 .4292-.28308l1.02074-2.38135a.46691.46691 0 0 1 .8584 0l1.0208 2.38135a.46686.46686 0 0 0 .4292.28308h2.02661a.46714.46714 0 0 1 .29194.83185z"/></g></svg>