<svg id="Layer_1" enable-background="new 0 0 512 512" height="512" viewBox="0 0 512 512" width="512" xmlns="http://www.w3.org/2000/svg"><g id="Layer_2_00000042000822396739241590000016871613492026833300_"><g id="Social_Icon"><g id="PollVertical"><path d="m92.8 170.7c33.1 0 60 26.9 60 60v221.3c0 33.1-26.9 60-60 60-33.1 0-60-26.9-60-60v-221.3c0-33.2 26.8-60 60-60z"/><path d="m256 0c33.1 0 60 26.9 60 60v392c0 33.1-26.9 60-60 60-33.1 0-60-26.9-60-60v-392c0-33.1 26.9-60 60-60z"/><path d="m419.2 341.3c33.1 0 60 26.9 60 60v50.7c0 33.1-26.9 60-60 60-33.1 0-60-26.9-60-60v-50.7c0-33.1 26.9-60 60-60z"/></g></g></g></svg>