<svg height="512" viewBox="0 0 152 152" width="512" xmlns="http://www.w3.org/2000/svg" xmlns:xlink="http://www.w3.org/1999/xlink"><linearGradient id="linear-gradient" gradientUnits="userSpaceOnUse" x1="76" x2="76" y2="152"><stop offset="0" stop-color="#ff4500"/><stop offset="1" stop-color="#dd3400"/></linearGradient><linearGradient id="linear-gradient-2" gradientUnits="userSpaceOnUse" x1="57.7" x2="66.21" y1="78.3" y2="86.8"><stop offset="0" stop-color="#bf2800"/><stop offset="1" stop-color="#bf2800" stop-opacity="0"/></linearGradient><linearGradient id="linear-gradient-3" x1="68.07" x2="84.07" xlink:href="#linear-gradient-2" y1="90.07" y2="106.07"/><linearGradient id="linear-gradient-4" x1="85.5" x2="94.13" xlink:href="#linear-gradient-2" y1="78.51" y2="87.14"/><linearGradient id="linear-gradient-5" x1="65.48" x2="132.06" xlink:href="#linear-gradient-2" y1="60.84" y2="127.42"/><g id="Layer_2" data-name="Layer 2"><g id="Color"><g id="_33.Reddit" data-name="33.Reddit"><circle id="Background" cx="76" cy="76" fill="url(#linear-gradient)" r="76"/><g id="Shadow"><path d="m55.94 82.55a6 6 0 1 1 6 6 6 6 0 0 1 -6-6z" fill="url(#linear-gradient-2)"/><path d="m63.43 96.78a19.64 19.64 0 0 0 12.5 3.78 19.75 19.75 0 0 0 12.55-3.66 1.68 1.68 0 1 1 2.35 2.41v-.24a23.09 23.09 0 0 1 -14.83 4.63 23.08 23.08 0 0 1 -14.84-4.63 1.62 1.62 0 0 1 2.28-2.29z" fill="url(#linear-gradient-3)"/><path d="m89.71 89v-.22a4.26 4.26 0 1 1 .29.22z" fill="url(#linear-gradient-4)"/><path d="m151 88.33a76.09 76.09 0 0 1 -55 61l-46-46c6.41 5 15.75 8.18 26.15 8.18 19.33 0 35-10.93 35-24.39a19.53 19.53 0 0 0 0-2.65 8.69 8.69 0 1 0 -10-14 42.7 42.7 0 0 0 -23.15-7.34l3.9-18.74 12.88 2.71a6 6 0 1 0 10.87-4.1z" fill="url(#linear-gradient-5)"/></g><path id="Icon" d="m116 76.54a8.78 8.78 0 0 0 -14.84-6 42.7 42.7 0 0 0 -23.16-7.41l3.9-18.74 12.88 2.71a6 6 0 1 0 .79-3.68l-14.72-2.94a1.86 1.86 0 0 0 -2.22 1.42l-4.43 20.87a43.08 43.08 0 0 0 -23.43 7.39 8.77 8.77 0 0 0 -12 12.78 8.28 8.28 0 0 0 2.36 1.58 19.53 19.53 0 0 0 0 2.65c0 13.45 15.67 24.39 35 24.39s35-10.93 35-24.39a19.53 19.53 0 0 0 0-2.65 8.76 8.76 0 0 0 4.87-7.98zm-60.06 6a6 6 0 1 1 6 6 6 6 0 0 1 -6-5.99zm34.89 16.53a23.09 23.09 0 0 1 -14.83 4.63 23.08 23.08 0 0 1 -14.84-4.63 1.62 1.62 0 0 1 2.28-2.29 19.64 19.64 0 0 0 12.5 3.78 19.75 19.75 0 0 0 12.54-3.66 1.71 1.71 0 0 1 2.38 0 1.41 1.41 0 0 1 -.03 2.17zm-7.09-16.31a6 6 0 0 1 12 0c.16 3.32-1.74 6.24-5.74 6.24a6 6 0 0 1 -6.26-6.24z" fill="#fff"/></g></g></g></svg>