<?xml version="1.0" standalone="no"?>
<svg xmlns="http://www.w3.org/2000/svg" version="1.1" xmlns:xlink="http://www.w3.org/1999/xlink" width="512" height="512" x="0" y="0" viewBox="0 0 32 32" style="enable-background:new 0 0 512 512" xml:space="preserve" class=""><g><path d="m19.33 6.822 1.877-1.83a1 1 0 0 0-.555-1.706l-2.595-.377-1.16-2.351a1.042 1.042 0 0 0-1.794 0l-1.16 2.351-2.595.377a1 1 0 0 0-.554 1.706l1.877 1.83-.443 2.585a1 1 0 0 0 1.45 1.054L16 9.241l2.321 1.22a1 1 0 0 0 1.451-1.054zM31.951 6.923a1 1 0 0 0-.807-.68l-2.595-.378-1.161-2.351a1.041 1.041 0 0 0-1.794 0l-1.16 2.351-2.595.377a1 1 0 0 0-.554 1.706l1.878 1.83-.444 2.585a1 1 0 0 0 1.451 1.055l2.32-1.22 2.322 1.22a1 1 0 0 0 1.451-1.055l-.443-2.585 1.877-1.83a1 1 0 0 0 .254-1.025zM10.16 6.242l-2.594-.377-1.16-2.351a1 1 0 0 0-1.794 0l-1.16 2.351-2.596.377a1 1 0 0 0-.554 1.706l1.878 1.83-.443 2.585a1 1 0 0 0 1.45 1.054l2.322-1.22 2.32 1.22a1 1 0 0 0 1.452-1.054l-.443-2.585 1.878-1.83a1 1 0 0 0-.555-1.705zM26 15H6a3.003 3.003 0 0 0-3 3v8a3.003 3.003 0 0 0 3 3h6.586l2.707 2.707a1 1 0 0 0 1.414 0L19.414 29H26a3.003 3.003 0 0 0 3-3v-8a3.003 3.003 0 0 0-3-3zm-2 10H8a1 1 0 0 1 0-2h16a1 1 0 0 1 0 2zm0-4H8a1 1 0 0 1 0-2h16a1 1 0 0 1 0 2z" fill="#ffacac" opacity="1" data-original="#000000" class=""/></g></svg>