<?xml version="1.0" standalone="no"?>
<svg xmlns="http://www.w3.org/2000/svg" version="1.1" xmlns:xlink="http://www.w3.org/1999/xlink" width="512" height="512" x="0" y="0" viewBox="0 0 170 170" style="enable-background:new 0 0 512 512" xml:space="preserve" class=""><g><path d="M156 76.01h-14.35c-2.76 0-5 2.24-5 5s2.24 5 5 5H156c2.76 0 5-2.24 5-5s-2.24-5-5-5zM26.2 76.01H13.99c-2.76 0-5 2.24-5 5s2.24 5 5 5H26.2c2.76 0 5-2.24 5-5s-2.24-5-5-5zM128.54 117.48a5 5 0 0 0-3.64-1.46c-1.25.03-2.49.51-3.43 1.46a4.998 4.998 0 0 0-.9 5.86c.23.44.53.85.9 1.21l10.2 10.2c.97.98 2.25 1.47 3.53 1.47s2.56-.49 3.54-1.47a5.003 5.003 0 0 0 0-7.07zM40.34 43.43c.98.98 2.26 1.46 3.54 1.46s2.56-.49 3.54-1.46a5.003 5.003 0 0 0 0-7.07l-9.09-9.09c-1.95-1.95-5.12-1.95-7.07 0s-1.95 5.12 0 7.07l9.09 9.09zM40.34 118.59l-9.09 9.09a5.003 5.003 0 0 0 0 7.07c.98.98 2.26 1.46 3.54 1.46s2.56-.49 3.54-1.46l9.09-9.09c1.95-1.95 1.95-5.12 0-7.07s-5.12-1.95-7.07 0zM125 46c1.28 0 2.56-.49 3.54-1.46l10.2-10.2c1.95-1.95 1.95-5.12 0-7.07s-5.12-1.95-7.07 0l-10.2 10.2a5.003 5.003 0 0 0 0 7.07 4.98 4.98 0 0 0 3.54 1.46zM84.99 29.46c2.76 0 5-2.24 5-5V10c0-2.76-2.24-5-5-5s-5 2.24-5 5v14.46c0 2.76 2.24 5 5 5zM68.16 156.75c2.32 4.87 7.3 8.25 13.05 8.25h7.58c7.27 0 13.3-5.4 14.31-12.4-9.71 3.51-19.31 4.57-26.92 4.57-3.03 0-5.75-.17-8.02-.42zM66.75 138.48v7.94c4.87.73 20.7 2.31 36.5-4.62v-8.52c-8.05 3.05-18.6 5.39-32.03 5.39-1.49 0-2.99-.06-4.47-.19zM85 42.34c-23.3 0-42.26 18.99-42.26 42.34 0 11.46 4.51 22.2 12.71 30.26 1.74 1.7 3.45 3.56 5.07 5.53 1.14 1.37 2.23 2.76 3.26 4.13.86 1.14 1.54 2.4 2.03 3.73.06 0 .12.01.18.02 1.72.21 3.47.32 5.23.32 4.71 0 27.04-.6 41.13-11.47.72-.78 1.47-1.54 2.22-2.28 8.18-8.04 12.69-18.78 12.69-30.24 0-23.35-18.96-42.34-42.26-42.34zm-7.47 26.92c-5.59 1.84-9.62 6.82-10.28 12.69a5.003 5.003 0 0 1-5.53 4.41 5.002 5.002 0 0 1-4.41-5.53c1.09-9.73 7.8-18 17.08-21.07 2.62-.86 5.45.56 6.32 3.18.86 2.62-.56 5.45-3.18 6.32z" fill="#ffacac" opacity="1" data-original="#000000" class=""/></g></svg>