<?xml version="1.0" standalone="no"?>
<svg xmlns="http://www.w3.org/2000/svg" version="1.1" xmlns:xlink="http://www.w3.org/1999/xlink" width="512" height="512" x="0" y="0" viewBox="0 0 512 512" style="enable-background:new 0 0 512 512" xml:space="preserve"><g><path d="M120.5 120c-16.817 0-30.5 13.683-30.5 30.5s13.683 30.5 30.5 30.5 30.5-13.683 30.5-30.5-13.683-30.5-30.5-30.5z" fill="#ffffff" opacity="1" data-original="#000000"/><path d="M115 0C51.589 0 0 51.589 0 115v282c0 63.411 51.589 115 115 115h126V0H115zm5.5 211C87.141 211 60 183.859 60 150.5S87.141 90 120.5 90s60.5 27.141 60.5 60.5-27.141 60.5-60.5 60.5zM391.5 257c-16.817 0-30.5 13.683-30.5 30.5s13.683 30.5 30.5 30.5 30.5-13.683 30.5-30.5-13.683-30.5-30.5-30.5z" fill="#ffffff" opacity="1" data-original="#000000"/><path d="M397 0H271v512h126c63.411 0 115-51.589 115-115V115C512 51.589 460.411 0 397 0zm-5.5 348c-33.359 0-60.5-27.141-60.5-60.5s27.141-60.5 60.5-60.5 60.5 27.141 60.5 60.5-27.141 60.5-60.5 60.5z" fill="#ffffff" opacity="1" data-original="#000000"/></g></svg>