<svg id="Layer_1" viewBox="0 0 512 512" xmlns="http://www.w3.org/2000/svg" data-name="Layer 1"><path d="m300.676 496.001-29.297-109.337c10.045-2.563 19.356-7.624 27.061-14.842 3.436-3.219 7.233-4.236 11.818-3.166 31.724 7.4 63.824-11.038 73.421-42.159l36.816 137.4-68.976-17.785-50.843 49.89zm-70.025-469.985c-9.542 8.939-21.855 12.239-34.589 9.268-19.018-4.436-38.238 6.66-43.905 25.349-3.794 12.512-12.809 21.527-25.321 25.321-18.688 5.667-29.785 24.887-25.349 43.905 2.97 12.733-.329 25.047-9.268 34.589-13.356 14.257-13.356 36.44 0 50.698 8.939 9.542 12.238 21.856 9.268 34.589-4.436 19.018 6.661 38.238 25.349 43.905 12.512 3.795 21.527 12.809 25.321 25.321 5.667 18.689 24.887 29.785 43.905 25.349 12.733-2.97 25.047.329 34.589 9.268 14.257 13.356 36.44 13.357 50.698 0 9.542-8.939 21.856-12.238 34.589-9.268 19.018 4.436 38.238-6.661 43.905-25.349 3.794-12.512 12.809-21.526 25.321-25.321 18.688-5.667 29.785-24.887 25.349-43.905-2.97-12.733.329-25.047 9.268-34.589 13.356-14.257 13.357-36.44 0-50.698-8.939-9.542-12.238-21.856-9.268-34.589 4.437-19.018-6.661-38.238-25.349-43.905-12.512-3.794-21.527-12.809-25.321-25.321-5.667-18.689-24.887-29.785-43.905-25.349-12.733 2.97-25.047-.329-34.589-9.268-14.258-13.357-36.44-13.356-50.698 0zm25.349 70.1 27.58 65.609 70.921 5.956-53.875 46.505 16.251 69.29-60.877-36.868-60.877 36.868 16.251-69.29-53.875-46.505 70.921-5.956zm-44.676 399.885-50.843-49.89-68.976 17.785 36.816-137.4c9.596 31.121 41.698 49.559 73.421 42.159 4.585-1.07 8.382-.053 11.818 3.166 7.705 7.218 17.016 12.28 27.061 14.842l-29.297 109.337z" fill-rule="evenodd"/></svg>